HIERARCHY
ROOT locator2
{
  OFFSET 53.6172 30.1899 0.816905
  CHANNELS 6 Xposition Yposition Zposition Zrotation Xrotation Yrotation
  JOINT koshi
  {
    OFFSET 0 0 0
    CHANNELS 6 Xposition Yposition Zposition Zrotation Xrotation Yrotation
    JOINT sippo01
    {
      OFFSET 0 42.8363 -0.548134
      CHANNELS 6 Xposition Yposition Zposition Zrotation Xrotation Yrotation
      JOINT sippo02
      {
        OFFSET 0 44.0461 -3.28882
        CHANNELS 6 Xposition Yposition Zposition Zrotation Xrotation Yrotation
        JOINT sippo03
        {
          OFFSET 0 34.1929 -2.46662
          CHANNELS 6 Xposition Yposition Zposition Zrotation Xrotation Yrotation
          JOINT sippo04
          {
            OFFSET 0 30.0959 -1.75404
            CHANNELS 6 Xposition Yposition Zposition Zrotation Xrotation Yrotation
            JOINT sippo05
            {
              OFFSET 0 28.3637 -1.75404
              CHANNELS 6 Xposition Yposition Zposition Zrotation Xrotation Yrotation
              JOINT sippo06
              {
                OFFSET 0 31.6071 -3.2043
                CHANNELS 6 Xposition Yposition Zposition Zrotation Xrotation Yrotation
                End Site
                {
                  OFFSET 0 0 0
                }
              }
            }
          }
        }
      }
    }
    JOINT R_momo
    {
      OFFSET -27.891 13.5892 3.92723
      CHANNELS 6 Xposition Yposition Zposition Zrotation Xrotation Yrotation
      JOINT R_hiza
      {
        OFFSET 0 28.01 1.8232
        CHANNELS 6 Xposition Yposition Zposition Zrotation Xrotation Yrotation
        JOINT R_ashi
        {
          OFFSET 0 24.3992 -2.49174
          CHANNELS 6 Xposition Yposition Zposition Zrotation Xrotation Yrotation
          End Site
          {
            OFFSET 0 0 0
          }
        }
      }
    }
    JOINT L_momo
    {
      OFFSET 27.891 13.5892 3.92714
      CHANNELS 6 Xposition Yposition Zposition Zrotation Xrotation Yrotation
      JOINT L_hiza
      {
        OFFSET 0 28.0098 1.82319
        CHANNELS 6 Xposition Yposition Zposition Zrotation Xrotation Yrotation
        JOINT L_ashi
        {
          OFFSET 0 24.3992 -2.49171
          CHANNELS 6 Xposition Yposition Zposition Zrotation Xrotation Yrotation
          End Site
          {
            OFFSET 0 0 0
          }
        }
      }
    }
  }
  JOINT hara
  {
    OFFSET 0 2.15392 0
    CHANNELS 6 Xposition Yposition Zposition Zrotation Xrotation Yrotation
    JOINT mune
    {
      OFFSET 0 62.0609 0.472494
      CHANNELS 6 Xposition Yposition Zposition Zrotation Xrotation Yrotation
      JOINT R_kata
      {
        OFFSET 22.6695 9.65301 -5.3622
        CHANNELS 6 Xposition Yposition Zposition Zrotation Xrotation Yrotation
        JOINT R_hiji
        {
          OFFSET 0 25.813 1.69098
          CHANNELS 6 Xposition Yposition Zposition Zrotation Xrotation Yrotation
          JOINT R_te
          {
            OFFSET 0 28.5636 -0.966307
            CHANNELS 6 Xposition Yposition Zposition Zrotation Xrotation Yrotation
            End Site
            {
              OFFSET 0 0 0
            }
          }
        }
      }
      JOINT L_kata
      {
        OFFSET -22.6695 9.65298 -5.3622
        CHANNELS 6 Xposition Yposition Zposition Zrotation Xrotation Yrotation
        JOINT L_hiji
        {
          OFFSET 0 25.813 1.69102
          CHANNELS 6 Xposition Yposition Zposition Zrotation Xrotation Yrotation
          JOINT L_te
          {
            OFFSET 0 28.5636 -0.966295
            CHANNELS 6 Xposition Yposition Zposition Zrotation Xrotation Yrotation
            End Site
            {
              OFFSET 0 0 0
            }
          }
        }
      }
      JOINT kubi
      {
        OFFSET 0 23.1438 -0.944988
        CHANNELS 6 Xposition Yposition Zposition Zrotation Xrotation Yrotation
        JOINT atama
        {
          OFFSET 0 20.8625 4.12737
          CHANNELS 6 Xposition Yposition Zposition Zrotation Xrotation Yrotation
          JOINT ago
          {
            OFFSET 0 7.552 -7.58201
            CHANNELS 6 Xposition Yposition Zposition Zrotation Xrotation Yrotation
            End Site
            {
              OFFSET 0 0 0
            }
          }
        }
      }
    }
  }
}
MOTION
Frames:	4
Frame Time:	0.0333333
-0.000530377 26.5758 1.3901e-005 -90 -3.50835e-015 -90 0 0 0 -174.666 3.09254 0.502556 -5.21541e-007 42.8363 -0.548136 2.96592 -15.9213 3.73715 2.44379e-006 44.0461 -3.28881 5.37635 9.35644 -5.26419 -9.53674e-007 34.1929 -2.46661 6.36881 1.0484 -1.71284 -1.90735e-006 30.0959 -1.75403 6.02391 9.41182 -0.73855 -7.62939e-006 28.3637 -1.75404 9.40298 -5.86684 5.77412 -7.62939e-006 31.6071 -3.2043 5.21261 -6.16007 -5.42578 -27.891 13.5892 3.92724 117.524 -18.6486 -48.4334 -3.8147e-006 28.01 1.8232 12.005 -82.295 -3.9632 0 24.3992 -2.49173 -149.818 63.0223 -167.621 27.891 13.5892 3.92714 -102.225 -21.3515 59.5061 -7.10543e-015 28.0098 1.82319 -3.56881 -68.5116 9.57038 -1.14441e-005 24.3992 -2.49172 140.895 67.2575 166.757 6.07686e-007 2.15392 0 6.25229e-008 -0.471468 -6.25229e-008 1.75114e-005 62.0609 0.472496 1.93502e-039 7.3103e-017 -1.51661e-021 22.6695 9.65298 -5.3622 -148.418 2.76172 46.4992 3.8147e-006 25.813 1.69098 179.966 -77.8669 179.749 1.14441e-005 28.5636 -0.966307 40.9819 13.1956 -94.3788 -22.6695 9.65298 -5.3622 130.754 -5.34477 -52.425 0 25.813 1.69101 -179.768 -75.3133 -178.038 3.8147e-006 28.5636 -0.966291 -44.319 34.5153 110.047 6.57678e-006 23.1438 -0.94499 5.19927e-007 -4.04065 -5.19927e-007 -0.0033063 20.8625 4.12738 -0.0922921 -4.01379 -0.0590792 0 7.55204 -7.58201 -1.07967e-005 4.26627 1.07911e-005 
-1.00032 25.7059 -0.927119 -90 -3.50835e-015 -90 0 0 0 -175.06 2.66015 0.494118 -5.21541e-007 42.8363 -0.548136 2.64544 -15.1727 3.82168 2.41909e-006 44.0461 -3.28881 5.26147 9.11652 -4.78038 -9.76817e-007 34.1929 -2.46661 7.9879 1.32555 -1.08661 -2.63196e-006 30.0959 -1.75404 8.32783 9.62959 -1.25786 -8.62514e-006 28.3637 -1.75404 10.2788 -5.7681 5.78238 -8.54249e-006 31.6071 -3.2043 5.8228 -5.84227 -5.5453 -27.891 13.5892 3.92724 118.141 -16.0127 -48.2094 -3.85904e-006 28.01 1.8232 12.0354 -81.9811 -4.39512 -2.53669e-008 24.3992 -2.49173 -148.222 65.3579 -168.721 27.891 13.5892 3.92714 -104.924 -20.0443 58.5665 6.22265e-008 28.0098 1.82319 -5.27506 -73.7368 8.93058 -1.13672e-005 24.3992 -2.49172 143 64.8544 165.281 6.07686e-007 2.15392 7.10543e-015 -0.730221 -2.16596 -0.338632 -2.72804e-012 62.0609 0.472496 3.97569e-016 4.02927e-015 -4.96962e-017 22.6695 9.65299 -5.3622 -145.567 7.64023 48.8054 3.8147e-006 25.813 1.69098 179.961 -73.3969 -179.075 1.14904e-005 28.5636 -0.966307 39.974 18.0107 -91.3547 -22.6695 9.65298 -5.3622 129.508 0.623571 -56.3169 -2.13163e-014 25.813 1.69101 -179.803 -71.5483 -179.387 3.80331e-006 28.5636 -0.966291 -41.5637 39.3488 105.904 3.07021e-012 23.1438 -0.94499 -1.81965 -1.8868 1.90497 4.71764e-009 20.8625 4.12738 -1.69283 -1.7883 1.9546 -8.11795e-013 7.55204 -7.58201 -1.10946e-005 5.82054 1.1089e-005 
-1.89084 24.2258 -1.77778 -90 -3.50835e-015 -90 0 0 0 -175.449 2.23386 0.479894 -5.21541e-007 42.8363 -0.548136 2.33392 -14.4378 3.91289 2.39486e-006 44.0461 -3.28881 5.04332 9.05887 -4.25721 -9.59151e-007 34.1929 -2.46661 9.24652 1.91828 -0.374962 -3.16555e-006 30.0959 -1.75403 8.13831 9.89104 -1.36552 -8.94734e-006 28.3637 -1.75404 10.9397 -5.67429 5.7747 -8.85807e-006 31.6071 -3.2043 6.21846 -5.234 -5.86811 -27.891 13.5892 3.92724 118.742 -12.4015 -48.284 -3.91066e-006 28.01 1.8232 13.8054 -82.7134 -4.08001 -2.97172e-008 24.3992 -2.49173 -146.298 67.625 -170.136 27.891 13.5892 3.92714 -106.889 -17.3256 57.6454 1.22947e-007 28.0098 1.82319 -9.06713 -79.5652 7.81961 -1.12652e-005 24.3992 -2.49172 145.071 62.1674 164.185 6.07686e-007 2.15392 3.55271e-015 -1.33369 -0.948913 -0.677702 -3.63753e-012 62.0609 0.472496 -1.98785e-016 -5.40446e-016 -0 22.6695 9.65299 -5.3622 -142.985 7.87464 47.9694 3.8147e-006 25.813 1.69098 179.948 -73.1666 -179.062 1.14923e-005 28.5636 -0.966307 39.8795 19.1237 -91.2602 -22.6695 9.65298 -5.3622 129.927 1.95148 -55.6442 1.42109e-014 25.813 1.69101 -179.791 -71.7079 -179.529 3.80128e-006 28.5636 -0.966291 -41.7032 40.3976 105.769 2.72848e-012 23.1438 -0.94499 -3.74841 -1.52943 3.84657 4.97392e-009 20.8625 4.12738 -3.36485 -0.954809 3.93275 -8.10019e-013 7.55204 -7.58201 -1.00962e-005 6.95532 1.22384e-006 
-1.77256 23.8043 -2.08917 -90 -3.50835e-015 -90 0 0 0 -175.841 1.80205 0.459835 -5.21541e-007 42.8363 -0.548136 2.02205 -13.6958 4.01329 2.37041e-006 44.0461 -3.28881 4.71652 9.06327 -3.67576 -9.04662e-007 34.1929 -2.46661 10.0994 2.8974 0.319533 -3.49739e-006 30.0959 -1.75403 7.94546 10.1571 -1.4732 -9.09468e-006 28.3637 -1.75404 11.202 -5.25714 5.66671 -8.97379e-006 31.6071 -3.2043 6.48063 -4.31556 -6.34912 -27.891 13.5892 3.92724 118.469 -11.3351 -48.5995 -3.91471e-006 28.01 1.8232 14.0958 -82.5796 -4.74053 -5.22627e-008 24.3992 -2.49173 -147.086 68.0883 -168.581 27.891 13.5892 3.92714 -106.033 -16.4427 57.7984 1.12267e-007 28.0098 1.82319 -11.5557 -80.978 6.95107 -1.12514e-005 24.3992 -2.49172 145.26 60.6851 164.57 6.07686e-007 2.15392 7.10543e-015 -1.72116 -0.267238 -1.01108 -3.63798e-012 62.0609 0.472496 1.98785e-016 -4.60311e-015 -0 22.6695 9.65299 -5.3622 -142.814 7.31015 46.3396 3.8147e-006 25.813 1.69098 179.928 -74.8658 -179.331 1.14805e-005 28.5636 -0.966307 40.1098 20.1722 -92.6723 -22.6695 9.65298 -5.3622 130.383 2.02192 -55.1718 -1.42109e-014 25.813 1.69101 -179.78 -71.765 -179.179 3.80329e-006 28.5636 -0.966291 -41.3853 39.2707 105.667 2.72848e-012 23.1438 -0.94499 -5.38276 -0.884069 5.75312 4.97392e-009 20.8625 4.12738 -5.05314 0.113217 5.41172 -8.10019e-013 7.55204 -7.58201 -1.004e-005 3.39259 6.05683e-007 
